<svg width="1440" height="1024" viewBox="0 0 1440 1024" fill="none" xmlns="http://www.w3.org/2000/svg">
  <g clip-path="url(#clip0_2_2)">
    <rect width="1440" height="1024" fill="black" />
    <path d="M886 596.667C872.032 596.667 858.636 591.118 848.759 581.241C838.882 571.364 833.333 557.968 833.333 544C833.333 530.032 838.882 516.636 848.759 506.759C858.636 496.882 872.032 491.333 886 491.333C899.968 491.333 913.364 496.882 923.241 506.759C933.118 516.636 938.667 530.032 938.667 544C938.667 557.968 933.118 571.364 923.241 581.241C913.364 591.118 899.968 596.667 886 596.667V596.667ZM886 478.167C877.355 478.167 868.794 479.87 860.807 483.178C852.819 486.486 845.562 491.336 839.449 497.449C827.103 509.795 820.167 526.54 820.167 544C820.167 561.46 827.103 578.205 839.449 590.551C845.562 596.664 852.819 601.514 860.807 604.822C868.794 608.131 877.355 609.833 886 609.833C903.46 609.833 920.205 602.897 932.551 590.551C944.897 578.205 951.833 561.46 951.833 544C951.833 535.355 950.131 526.794 946.822 518.807C943.514 510.819 938.664 503.562 932.551 497.449C926.438 491.336 919.181 486.486 911.193 483.178C903.206 479.87 894.645 478.167 886 478.167V478.167Z" fill="rgb(29,29,29)" fill-opacity="0.28" />
    <path d="M886 596.667C872.032 596.667 858.636 591.118 848.759 581.241C838.882 571.364 833.333 557.968 833.333 544C833.333 530.032 838.882 516.636 848.759 506.759C858.636 496.882 872.032 491.333 886 491.333C899.968 491.333 913.364 496.882 923.241 506.759C933.118 516.636 938.667 530.032 938.667 544C938.667 557.968 933.118 571.364 923.241 581.241C913.364 591.118 899.968 596.667 886 596.667V596.667ZM886 478.167C877.355 478.167 868.794 479.87 860.807 483.178C852.819 486.486 845.562 491.336 839.449 497.449C827.103 509.795 820.167 526.54 820.167 544C820.167 561.46 827.103 578.205 839.449 590.551C845.562 596.664 852.819 601.514 860.807 604.822C868.794 608.131 877.355 609.833 886 609.833C903.46 609.833 920.205 602.897 932.551 590.551C944.897 578.205 951.833 561.46 951.833 544C951.833 535.355 950.131 526.794 946.822 518.807C943.514 510.819 938.664 503.562 932.551 497.449C926.438 491.336 919.181 486.486 911.193 483.178C903.206 479.87 894.645 478.167 886 478.167V478.167Z" fill="rgb(29,29,29)" fill-opacity="0.28" />
    <path d="M664.695 757.083L701.167 793.555V803.167H691.555L655.083 766.695L618.612 803.167H609V793.555L645.472 757.083L609 720.612V711H618.612L655.083 747.472L691.555 711H701.167V720.612L664.695 757.083Z" fill="rgb(29,29,29)" fill-opacity="0.28" />
    <path d="M884.695 273.083L921.167 309.555V319.167H911.555L875.083 282.695L838.612 319.167H829V309.555L865.472 273.083L829 236.612V227H838.612L875.083 263.472L911.555 227H921.167V236.612L884.695 273.083Z" fill="rgb(29,29,29)" fill-opacity="0.28" />
    <path d="M641.695 486.083L678.167 522.555V532.167H668.555L632.083 495.695L595.612 532.167H586V522.555L622.472 486.083L586 449.612V440H595.612L632.083 476.472L668.555 440H678.167V449.612L641.695 486.083Z" fill="rgb(29,29,29)" fill-opacity="0.28" />
    <path d="M1075.7 813.083L1112.17 849.555V859.167H1102.56L1066.08 822.695L1029.61 859.167H1020V849.555L1056.47 813.083L1020 776.612V767H1029.61L1066.08 803.472L1102.56 767H1112.17V776.612L1075.7 813.083Z" fill="rgb(29,29,29)" fill-opacity="0.28" />
    <path d="M884.695 273.083L921.167 309.555V319.167H911.555L875.083 282.695L838.612 319.167H829V309.555L865.472 273.083L829 236.612V227H838.612L875.083 263.472L911.555 227H921.167V236.612L884.695 273.083Z" fill="rgb(29,29,29)" fill-opacity="0.28" />
    <path d="M641.695 486.083L678.167 522.555V532.167H668.555L632.083 495.695L595.612 532.167H586V522.555L622.472 486.083L586 449.612V440H595.612L632.083 476.472L668.555 440H678.167V449.612L641.695 486.083Z" fill="rgb(29,29,29)" fill-opacity="0.28" />
    <path d="M1075.7 813.083L1112.17 849.555V859.167H1102.56L1066.08 822.695L1029.61 859.167H1020V849.555L1056.47 813.083L1020 776.612V767H1029.61L1066.08 803.472L1102.56 767H1112.17V776.612L1075.7 813.083Z" fill="rgb(29,29,29)" fill-opacity="0.28" />
    <path d="M884.695 273.083L921.167 309.555V319.167H911.555L875.083 282.695L838.612 319.167H829V309.555L865.472 273.083L829 236.612V227H838.612L875.083 263.472L911.555 227H921.167V236.612L884.695 273.083Z" fill="rgb(29,29,29)" fill-opacity="0.28" />
    <path d="M641.695 486.083L678.167 522.555V532.167H668.555L632.083 495.695L595.612 532.167H586V522.555L622.472 486.083L586 449.612V440H595.612L632.083 476.472L668.555 440H678.167V449.612L641.695 486.083Z" fill="rgb(29,29,29)" fill-opacity="0.28" />
    <path d="M1075.7 813.083L1112.17 849.555V859.167H1102.56L1066.08 822.695L1029.61 859.167H1020V849.555L1056.47 813.083L1020 776.612V767H1029.61L1066.08 803.472L1102.56 767H1112.17V776.612L1075.7 813.083Z" fill="rgb(29,29,29)" fill-opacity="0.28" />
    <path d="M884.695 273.083L921.167 309.555V319.167H911.555L875.083 282.695L838.612 319.167H829V309.555L865.472 273.083L829 236.612V227H838.612L875.083 263.472L911.555 227H921.167V236.612L884.695 273.083Z" fill="rgb(29,29,29)" fill-opacity="0.28" />
    <path d="M641.695 486.083L678.167 522.555V532.167H668.555L632.083 495.695L595.612 532.167H586V522.555L622.472 486.083L586 449.612V440H595.612L632.083 476.472L668.555 440H678.167V449.612L641.695 486.083Z" fill="rgb(29,29,29)" fill-opacity="0.28" />
    <path d="M1075.7 813.083L1112.17 849.555V859.167H1102.56L1066.08 822.695L1029.61 859.167H1020V849.555L1056.47 813.083L1020 776.612V767H1029.61L1066.08 803.472L1102.56 767H1112.17V776.612L1075.7 813.083Z" fill="rgb(29,29,29)" fill-opacity="0.28" />
    <path d="M884.695 273.083L921.167 309.555V319.167H911.555L875.083 282.695L838.612 319.167H829V309.555L865.472 273.083L829 236.612V227H838.612L875.083 263.472L911.555 227H921.167V236.612L884.695 273.083Z" fill="rgb(29,29,29)" fill-opacity="0.28" />
    <path d="M641.695 486.083L678.167 522.555V532.167H668.555L632.083 495.695L595.612 532.167H586V522.555L622.472 486.083L586 449.612V440H595.612L632.083 476.472L668.555 440H678.167V449.612L641.695 486.083Z" fill="rgb(29,29,29)" fill-opacity="0.28" />
    <path d="M1075.7 813.083L1112.17 849.555V859.167H1102.56L1066.08 822.695L1029.61 859.167H1020V849.555L1056.47 813.083L1020 776.612V767H1029.61L1066.08 803.472L1102.56 767H1112.17V776.612L1075.7 813.083Z" fill="rgb(29,29,29)" fill-opacity="0.28" />
    <path d="M884.695 273.083L921.167 309.555V319.167H911.555L875.083 282.695L838.612 319.167H829V309.555L865.472 273.083L829 236.612V227H838.612L875.083 263.472L911.555 227H921.167V236.612L884.695 273.083Z" fill="rgb(29,29,29)" fill-opacity="0.28" />
    <path d="M641.695 486.083L678.167 522.555V532.167H668.555L632.083 495.695L595.612 532.167H586V522.555L622.472 486.083L586 449.612V440H595.612L632.083 476.472L668.555 440H678.167V449.612L641.695 486.083Z" fill="rgb(29,29,29)" fill-opacity="0.28" />
    <path d="M1075.7 813.083L1112.17 849.555V859.167H1102.56L1066.08 822.695L1029.61 859.167H1020V849.555L1056.47 813.083L1020 776.612V767H1029.61L1066.08 803.472L1102.56 767H1112.17V776.612L1075.7 813.083Z" fill="rgb(29,29,29)" fill-opacity="0.28" />
    <path d="M884.695 273.083L921.167 309.555V319.167H911.555L875.083 282.695L838.612 319.167H829V309.555L865.472 273.083L829 236.612V227H838.612L875.083 263.472L911.555 227H921.167V236.612L884.695 273.083Z" fill="rgb(29,29,29)" fill-opacity="0.28" />
    <path d="M641.695 486.083L678.167 522.555V532.167H668.555L632.083 495.695L595.612 532.167H586V522.555L622.472 486.083L586 449.612V440H595.612L632.083 476.472L668.555 440H678.167V449.612L641.695 486.083Z" fill="rgb(29,29,29)" fill-opacity="0.28" />
    <path d="M1075.7 813.083L1112.17 849.555V859.167H1102.56L1066.08 822.695L1029.61 859.167H1020V849.555L1056.47 813.083L1020 776.612V767H1029.61L1066.08 803.472L1102.56 767H1112.17V776.612L1075.7 813.083Z" fill="rgb(29,29,29)" fill-opacity="0.28" />
    <path d="M884.695 273.083L921.167 309.555V319.167H911.555L875.083 282.695L838.612 319.167H829V309.555L865.472 273.083L829 236.612V227H838.612L875.083 263.472L911.555 227H921.167V236.612L884.695 273.083Z" fill="rgb(29,29,29)" fill-opacity="0.28" />
    <path d="M641.695 486.083L678.167 522.555V532.167H668.555L632.083 495.695L595.612 532.167H586V522.555L622.472 486.083L586 449.612V440H595.612L632.083 476.472L668.555 440H678.167V449.612L641.695 486.083Z" fill="rgb(29,29,29)" fill-opacity="0.28" />
    <path d="M1075.7 813.083L1112.17 849.555V859.167H1102.56L1066.08 822.695L1029.61 859.167H1020V849.555L1056.47 813.083L1020 776.612V767H1029.61L1066.08 803.472L1102.56 767H1112.17V776.612L1075.7 813.083Z" fill="rgb(29,29,29)" fill-opacity="0.28" />
    <path d="M884.695 273.083L921.167 309.555V319.167H911.555L875.083 282.695L838.612 319.167H829V309.555L865.472 273.083L829 236.612V227H838.612L875.083 263.472L911.555 227H921.167V236.612L884.695 273.083Z" fill="rgb(29,29,29)" fill-opacity="0.28" />
    <path d="M641.695 486.083L678.167 522.555V532.167H668.555L632.083 495.695L595.612 532.167H586V522.555L622.472 486.083L586 449.612V440H595.612L632.083 476.472L668.555 440H678.167V449.612L641.695 486.083Z" fill="rgb(29,29,29)" fill-opacity="0.28" />
    <path d="M1075.7 813.083L1112.17 849.555V859.167H1102.56L1066.08 822.695L1029.61 859.167H1020V849.555L1056.47 813.083L1020 776.612V767H1029.61L1066.08 803.472L1102.56 767H1112.17V776.612L1075.7 813.083Z" fill="rgb(29,29,29)" fill-opacity="0.28" />
    <path d="M884.695 273.083L921.167 309.555V319.167H911.555L875.083 282.695L838.612 319.167H829V309.555L865.472 273.083L829 236.612V227H838.612L875.083 263.472L911.555 227H921.167V236.612L884.695 273.083Z" fill="rgb(29,29,29)" fill-opacity="0.28" />
    <path d="M641.695 486.083L678.167 522.555V532.167H668.555L632.083 495.695L595.612 532.167H586V522.555L622.472 486.083L586 449.612V440H595.612L632.083 476.472L668.555 440H678.167V449.612L641.695 486.083Z" fill="rgb(29,29,29)" fill-opacity="0.28" />
    <path d="M1075.7 813.083L1112.17 849.555V859.167H1102.56L1066.08 822.695L1029.61 859.167H1020V849.555L1056.47 813.083L1020 776.612V767H1029.61L1066.08 803.472L1102.56 767H1112.17V776.612L1075.7 813.083Z" fill="rgb(29,29,29)" fill-opacity="0.28" />
    <path d="M884.695 273.083L921.167 309.555V319.167H911.555L875.083 282.695L838.612 319.167H829V309.555L865.472 273.083L829 236.612V227H838.612L875.083 263.472L911.555 227H921.167V236.612L884.695 273.083Z" fill="rgb(29,29,29)" fill-opacity="0.28" />
    <path d="M1040.7 398.083L1077.17 434.555V444.167H1067.56L1031.08 407.695L994.612 444.167H985V434.555L1021.47 398.083L985 361.612V352H994.612L1031.08 388.472L1067.56 352H1077.17V361.612L1040.7 398.083Z" fill="rgb(29,29,29)" fill-opacity="0.28" />
    <path d="M641.695 486.083L678.167 522.555V532.167H668.555L632.083 495.695L595.612 532.167H586V522.555L622.472 486.083L586 449.612V440H595.612L632.083 476.472L668.555 440H678.167V449.612L641.695 486.083Z" fill="rgb(29,29,29)" fill-opacity="0.28" />
    <path d="M1075.7 813.083L1112.17 849.555V859.167H1102.56L1066.08 822.695L1029.61 859.167H1020V849.555L1056.47 813.083L1020 776.612V767H1029.61L1066.08 803.472L1102.56 767H1112.17V776.612L1075.7 813.083Z" fill="rgb(29,29,29)" fill-opacity="0.28" />
    <path d="M1304.7 564.083L1341.17 600.555V610.167H1331.56L1295.08 573.695L1258.61 610.167H1249V600.555L1285.47 564.083L1249 527.612V518H1258.61L1295.08 554.472L1331.56 518H1341.17V527.612L1304.7 564.083Z" fill="rgb(29,29,29)" fill-opacity="0.28" />
    <path d="M664.695 102.083L701.167 138.555V148.167H691.555L655.083 111.695L618.612 148.167H609V138.555L645.472 102.083L609 65.6117V56H618.612L655.083 92.4717L691.555 56H701.167V65.6117L664.695 102.083Z" fill="rgb(29,29,29)" fill-opacity="0.28" />
    <path d="M1191 402.667C1177.03 402.667 1163.64 397.118 1153.76 387.241C1143.88 377.364 1138.33 363.968 1138.33 350C1138.33 336.032 1143.88 322.636 1153.76 312.759C1163.64 302.882 1177.03 297.333 1191 297.333C1204.97 297.333 1218.36 302.882 1228.24 312.759C1238.12 322.636 1243.67 336.032 1243.67 350C1243.67 363.968 1238.12 377.364 1228.24 387.241C1218.36 397.118 1204.97 402.667 1191 402.667V402.667ZM1191 284.167C1182.35 284.167 1173.79 285.869 1165.81 289.178C1157.82 292.486 1150.56 297.336 1144.45 303.449C1132.1 315.795 1125.17 332.54 1125.17 350C1125.17 367.46 1132.1 384.205 1144.45 396.551C1150.56 402.664 1157.82 407.514 1165.81 410.822C1173.79 414.131 1182.35 415.833 1191 415.833C1208.46 415.833 1225.21 408.897 1237.55 396.551C1249.9 384.205 1256.83 367.46 1256.83 350C1256.83 341.355 1255.13 332.794 1251.82 324.807C1248.51 316.819 1243.66 309.562 1237.55 303.449C1231.44 297.336 1224.18 292.486 1216.19 289.178C1208.21 285.869 1199.65 284.167 1191 284.167V284.167Z" fill="rgb(29,29,29)" fill-opacity="0.28" />
    <path d="M1191 402.667C1177.03 402.667 1163.64 397.118 1153.76 387.241C1143.88 377.364 1138.33 363.968 1138.33 350C1138.33 336.032 1143.88 322.636 1153.76 312.759C1163.64 302.882 1177.03 297.333 1191 297.333C1204.97 297.333 1218.36 302.882 1228.24 312.759C1238.12 322.636 1243.67 336.032 1243.67 350C1243.67 363.968 1238.12 377.364 1228.24 387.241C1218.36 397.118 1204.97 402.667 1191 402.667V402.667ZM1191 284.167C1182.35 284.167 1173.79 285.87 1165.81 289.178C1157.82 292.486 1150.56 297.336 1144.45 303.449C1132.1 315.795 1125.17 332.54 1125.17 350C1125.17 367.46 1132.1 384.205 1144.45 396.551C1150.56 402.664 1157.82 407.514 1165.81 410.822C1173.79 414.131 1182.35 415.833 1191 415.833C1208.46 415.833 1225.21 408.897 1237.55 396.551C1249.9 384.205 1256.83 367.46 1256.83 350C1256.83 341.355 1255.13 332.794 1251.82 324.807C1248.51 316.819 1243.66 309.562 1237.55 303.449C1231.44 297.336 1224.18 292.486 1216.19 289.178C1208.21 285.87 1199.65 284.167 1191 284.167V284.167Z" fill="rgb(29,29,29)" fill-opacity="0.28" />
    <path d="M855.833 963.5C841.865 963.5 828.469 957.951 818.592 948.074C808.715 938.197 803.167 924.801 803.167 910.833C803.167 896.865 808.715 883.469 818.592 873.592C828.469 863.715 841.865 858.167 855.833 858.167C869.801 858.167 883.197 863.715 893.074 873.592C902.951 883.469 908.5 896.865 908.5 910.833C908.5 924.801 902.951 938.197 893.074 948.074C883.197 957.951 869.801 963.5 855.833 963.5V963.5ZM855.833 845C847.188 845 838.627 846.703 830.64 850.011C822.653 853.32 815.395 858.169 809.282 864.282C796.936 876.628 790 893.373 790 910.833C790 928.293 796.936 945.038 809.282 957.385C815.395 963.498 822.653 968.347 830.64 971.655C838.627 974.964 847.188 976.667 855.833 976.667C873.293 976.667 890.038 969.731 902.385 957.385C914.731 945.038 921.667 928.293 921.667 910.833C921.667 902.188 919.964 893.627 916.655 885.64C913.347 877.653 908.498 870.395 902.385 864.282C896.271 858.169 889.014 853.32 881.027 850.011C873.039 846.703 864.479 845 855.833 845V845Z" fill="rgb(29,29,29)" fill-opacity="0.28" />
    <path d="M1102 1063.67C1088.03 1063.67 1074.64 1058.12 1064.76 1048.24C1054.88 1038.36 1049.33 1024.97 1049.33 1011C1049.33 997.032 1054.88 983.636 1064.76 973.759C1074.64 963.882 1088.03 958.333 1102 958.333C1115.97 958.333 1129.36 963.882 1139.24 973.759C1149.12 983.636 1154.67 997.032 1154.67 1011C1154.67 1024.97 1149.12 1038.36 1139.24 1048.24C1129.36 1058.12 1115.97 1063.67 1102 1063.67V1063.67ZM1102 945.167C1093.35 945.167 1084.79 946.87 1076.81 950.178C1068.82 953.486 1061.56 958.336 1055.45 964.449C1043.1 976.795 1036.17 993.54 1036.17 1011C1036.17 1028.46 1043.1 1045.21 1055.45 1057.55C1061.56 1063.66 1068.82 1068.51 1076.81 1071.82C1084.79 1075.13 1093.35 1076.83 1102 1076.83C1119.46 1076.83 1136.21 1069.9 1148.55 1057.55C1160.9 1045.21 1167.83 1028.46 1167.83 1011C1167.83 1002.35 1166.13 993.794 1162.82 985.807C1159.51 977.819 1154.66 970.562 1148.55 964.449C1142.44 958.336 1135.18 953.486 1127.19 950.178C1119.21 946.87 1110.65 945.167 1102 945.167V945.167Z" fill="rgb(29,29,29)" fill-opacity="0.28" />
    <path d="M1132.61 102L1169.08 138.472V148.083H1159.47L1123 111.612L1086.53 148.083H1076.92V138.472L1113.39 102L1076.92 65.5283V55.9167H1086.53L1123 92.3883L1159.47 55.9167H1169.08V65.5283L1132.61 102Z" fill="rgb(29,29,29)" fill-opacity="0.28" />
    <path d="M1357.61 879L1394.08 915.472V925.083H1384.47L1348 888.612L1311.53 925.083H1301.92V915.472L1338.39 879L1301.92 842.528V832.917H1311.53L1348 869.388L1384.47 832.917H1394.08V842.528L1357.61 879Z" fill="rgb(29,29,29)" fill-opacity="0.28" />
    <path d="M272.612 416L309.083 452.472V462.083H299.472L263 425.612L226.528 462.083H216.917V452.472L253.388 416L216.917 379.528V369.917H226.528L263 406.388L299.472 369.917H309.083V379.528L272.612 416Z" fill="rgb(29,29,29)" fill-opacity="0.28" />
    <path d="M272.612 416L309.083 452.472V462.083H299.472L263 425.612L226.528 462.083H216.917V452.472L253.388 416L216.917 379.528V369.917H226.528L263 406.388L299.472 369.917H309.083V379.528L272.612 416Z" fill="rgb(29,29,29)" fill-opacity="0.28" />
    <path d="M272.612 734L309.083 770.472V780.083H299.472L263 743.612L226.528 780.083H216.917V770.472L253.388 734L216.917 697.528V687.917H226.528L263 724.388L299.472 687.917H309.083V697.528L272.612 734Z" fill="rgb(29,29,29)" fill-opacity="0.28" />
    <path d="M272.612 734L309.083 770.472V780.083H299.472L263 743.612L226.528 780.083H216.917V770.472L253.388 734L216.917 697.528V687.917H226.528L263 724.388L299.472 687.917H309.083V697.528L272.612 734Z" fill="rgb(29,29,29)" fill-opacity="0.28" />
    <path d="M165.612 69L202.083 105.472V115.083H192.472L156 78.6117L119.528 115.083H109.917V105.472L146.388 69L109.917 32.5283V22.9167H119.528L156 59.3883L192.472 22.9167H202.083V32.5283L165.612 69Z" fill="rgb(29,29,29)" fill-opacity="0.28" />
    <path d="M165.612 69L202.083 105.472V115.083H192.472L156 78.6117L119.528 115.083H109.917V105.472L146.388 69L109.917 32.5283V22.9167H119.528L156 59.3883L192.472 22.9167H202.083V32.5283L165.612 69Z" fill="rgb(29,29,29)" fill-opacity="0.28" />
    <path d="M421 99.6667C407.032 99.6667 393.636 94.1179 383.759 84.241C373.882 74.3641 368.333 60.9681 368.333 47C368.333 33.0319 373.882 19.636 383.759 9.75905C393.636 -0.117867 407.032 -5.66666 421 -5.66666C434.968 -5.66666 448.364 -0.117867 458.241 9.75905C468.118 19.636 473.667 33.0319 473.667 47C473.667 60.9681 468.118 74.3641 458.241 84.241C448.364 94.1179 434.968 99.6667 421 99.6667V99.6667ZM421 -18.8333C412.355 -18.8333 403.794 -17.1305 395.807 -13.8221C387.819 -10.5136 380.562 -5.66438 374.449 0.448809C362.103 12.795 355.167 29.5399 355.167 47C355.167 64.4601 362.103 81.2051 374.449 93.5512C380.562 99.6644 387.819 104.514 395.807 107.822C403.794 111.131 412.355 112.833 421 112.833C438.46 112.833 455.205 105.897 467.551 93.5512C479.897 81.2051 486.833 64.4601 486.833 47C486.833 38.3546 485.131 29.7939 481.822 21.8067C478.514 13.8194 473.664 6.562 467.551 0.448809C461.438 -5.66438 454.181 -10.5136 446.193 -13.8221C438.206 -17.1305 429.645 -18.8333 421 -18.8333V-18.8333Z" fill="rgb(29,29,29)" fill-opacity="0.28" />
    <path d="M421 99.6667C407.032 99.6667 393.636 94.1179 383.759 84.241C373.882 74.3641 368.333 60.9681 368.333 47C368.333 33.0319 373.882 19.636 383.759 9.75905C393.636 -0.117867 407.032 -5.66666 421 -5.66666C434.968 -5.66666 448.364 -0.117867 458.241 9.75905C468.118 19.636 473.667 33.0319 473.667 47C473.667 60.9681 468.118 74.3641 458.241 84.241C448.364 94.1179 434.968 99.6667 421 99.6667V99.6667ZM421 -18.8333C412.355 -18.8333 403.794 -17.1305 395.807 -13.8221C387.819 -10.5136 380.562 -5.66438 374.449 0.448809C362.103 12.795 355.167 29.5399 355.167 47C355.167 64.4601 362.103 81.2051 374.449 93.5512C380.562 99.6644 387.819 104.514 395.807 107.822C403.794 111.131 412.355 112.833 421 112.833C438.46 112.833 455.205 105.897 467.551 93.5512C479.897 81.2051 486.833 64.4601 486.833 47C486.833 38.3546 485.131 29.7939 481.822 21.8067C478.514 13.8194 473.664 6.562 467.551 0.448809C461.438 -5.66438 454.181 -10.5136 446.193 -13.8221C438.206 -17.1305 429.645 -18.8333 421 -18.8333V-18.8333Z" fill="rgb(29,29,29)" fill-opacity="0.28" />
    <path d="M507 371.667C493.032 371.667 479.636 366.118 469.759 356.241C459.882 346.364 454.333 332.968 454.333 319C454.333 305.032 459.882 291.636 469.759 281.759C479.636 271.882 493.032 266.333 507 266.333C520.968 266.333 534.364 271.882 544.241 281.759C554.118 291.636 559.667 305.032 559.667 319C559.667 332.968 554.118 346.364 544.241 356.241C534.364 366.118 520.968 371.667 507 371.667V371.667ZM507 253.167C498.355 253.167 489.794 254.869 481.807 258.178C473.819 261.486 466.562 266.336 460.449 272.449C448.103 284.795 441.167 301.54 441.167 319C441.167 336.46 448.103 353.205 460.449 365.551C466.562 371.664 473.819 376.514 481.807 379.822C489.794 383.131 498.355 384.833 507 384.833C524.46 384.833 541.205 377.897 553.551 365.551C565.897 353.205 572.833 336.46 572.833 319C572.833 310.355 571.131 301.794 567.822 293.807C564.514 285.819 559.664 278.562 553.551 272.449C547.438 266.336 540.181 261.486 532.193 258.178C524.206 254.869 515.645 253.167 507 253.167V253.167Z" fill="rgb(29,29,29)" fill-opacity="0.28" />
    <path d="M452 997.667C438.032 997.667 424.636 992.118 414.759 982.241C404.882 972.364 399.333 958.968 399.333 945C399.333 931.032 404.882 917.636 414.759 907.759C424.636 897.882 438.032 892.333 452 892.333C465.968 892.333 479.364 897.882 489.241 907.759C499.118 917.636 504.667 931.032 504.667 945C504.667 958.968 499.118 972.364 489.241 982.241C479.364 992.118 465.968 997.667 452 997.667V997.667ZM452 879.167C443.355 879.167 434.794 880.87 426.807 884.178C418.819 887.486 411.562 892.336 405.449 898.449C393.103 910.795 386.167 927.54 386.167 945C386.167 962.46 393.103 979.205 405.449 991.551C411.562 997.664 418.819 1002.51 426.807 1005.82C434.794 1009.13 443.355 1010.83 452 1010.83C469.46 1010.83 486.205 1003.9 498.551 991.551C510.897 979.205 517.833 962.46 517.833 945C517.833 936.355 516.131 927.794 512.822 919.807C509.514 911.819 504.664 904.562 498.551 898.449C492.438 892.336 485.181 887.486 477.193 884.178C469.206 880.87 460.645 879.167 452 879.167V879.167Z" fill="rgb(29,29,29)" fill-opacity="0.28" />
    <path d="M74 404.667C60.032 404.667 46.636 399.118 36.7591 389.241C26.8821 379.364 21.3334 365.968 21.3334 352C21.3334 338.032 26.8821 324.636 36.7591 314.759C46.636 304.882 60.032 299.333 74 299.333C87.9681 299.333 101.364 304.882 111.241 314.759C121.118 324.636 126.667 338.032 126.667 352C126.667 365.968 121.118 379.364 111.241 389.241C101.364 399.118 87.9681 404.667 74 404.667V404.667ZM74 286.167C65.3547 286.167 56.794 287.869 48.8067 291.178C40.8194 294.486 33.562 299.336 27.4488 305.449C15.1027 317.795 8.16669 334.54 8.16669 352C8.16669 369.46 15.1027 386.205 27.4488 398.551C33.562 404.664 40.8194 409.514 48.8067 412.822C56.794 416.131 65.3547 417.833 74 417.833C91.4601 417.833 108.205 410.897 120.551 398.551C132.897 386.205 139.833 369.46 139.833 352C139.833 343.355 138.131 334.794 134.822 326.807C131.514 318.819 126.664 311.562 120.551 305.449C114.438 299.336 107.181 294.486 99.1934 291.178C91.2061 287.869 82.6454 286.167 74 286.167V286.167Z" fill="rgb(29,29,29)" fill-opacity="0.28" />
    <path d="M421 663.667C407.032 663.667 393.636 658.118 383.759 648.241C373.882 638.364 368.333 624.968 368.333 611C368.333 597.032 373.882 583.636 383.759 573.759C393.636 563.882 407.032 558.333 421 558.333C434.968 558.333 448.364 563.882 458.241 573.759C468.118 583.636 473.667 597.032 473.667 611C473.667 624.968 468.118 638.364 458.241 648.241C448.364 658.118 434.968 663.667 421 663.667V663.667ZM421 545.167C412.355 545.167 403.794 546.869 395.807 550.178C387.819 553.486 380.562 558.336 374.449 564.449C362.103 576.795 355.167 593.54 355.167 611C355.167 628.46 362.103 645.205 374.449 657.551C380.562 663.664 387.819 668.514 395.807 671.822C403.794 675.131 412.355 676.833 421 676.833C438.46 676.833 455.205 669.897 467.551 657.551C479.897 645.205 486.833 628.46 486.833 611C486.833 602.355 485.131 593.794 481.822 585.807C478.514 577.819 473.664 570.562 467.551 564.449C461.438 558.336 454.181 553.486 446.193 550.178C438.206 546.869 429.645 545.167 421 545.167V545.167Z" fill="rgb(29,29,29)" fill-opacity="0.28" />
    <path d="M10.8333 741.5C-3.13473 741.5 -16.5307 735.951 -26.4076 726.074C-36.2845 716.197 -41.8333 702.801 -41.8333 688.833C-41.8333 674.865 -36.2845 661.469 -26.4076 651.592C-16.5307 641.715 -3.13473 636.167 10.8333 636.167C24.8014 636.167 38.1974 641.715 48.0743 651.592C57.9512 661.469 63.5 674.865 63.5 688.833C63.5 702.801 57.9512 716.197 48.0743 726.074C38.1974 735.951 24.8014 741.5 10.8333 741.5V741.5ZM10.8333 623C2.18798 623 -6.37273 624.703 -14.36 628.011C-22.3473 631.32 -29.6047 636.169 -35.7179 642.282C-48.064 654.628 -55 671.373 -55 688.833C-55 706.293 -48.064 723.038 -35.7179 735.385C-29.6047 741.498 -22.3473 746.347 -14.36 749.655C-6.37273 752.964 2.18798 754.667 10.8333 754.667C28.2934 754.667 45.0384 747.731 57.3845 735.385C69.7307 723.038 76.6667 706.293 76.6667 688.833C76.6667 680.188 74.9638 671.627 71.6554 663.64C68.347 655.653 63.4977 648.395 57.3845 642.282C51.2713 636.169 44.0139 631.32 36.0267 628.011C28.0394 624.703 19.4787 623 10.8333 623V623Z" fill="rgb(29,29,29)" fill-opacity="0.28" />
    <path d="M1361 200.667C1347.03 200.667 1333.64 195.118 1323.76 185.241C1313.88 175.364 1308.33 161.968 1308.33 148C1308.33 134.032 1313.88 120.636 1323.76 110.759C1333.64 100.882 1347.03 95.3333 1361 95.3333C1374.97 95.3333 1388.36 100.882 1398.24 110.759C1408.12 120.636 1413.67 134.032 1413.67 148C1413.67 161.968 1408.12 175.364 1398.24 185.241C1388.36 195.118 1374.97 200.667 1361 200.667V200.667ZM1361 82.1667C1352.35 82.1667 1343.79 83.8695 1335.81 87.1779C1327.82 90.4864 1320.56 95.3356 1314.45 101.449C1302.1 113.795 1295.17 130.54 1295.17 148C1295.17 165.46 1302.1 182.205 1314.45 194.551C1320.56 200.664 1327.82 205.514 1335.81 208.822C1343.79 212.131 1352.35 213.833 1361 213.833C1378.46 213.833 1395.21 206.897 1407.55 194.551C1419.9 182.205 1426.83 165.46 1426.83 148C1426.83 139.355 1425.13 130.794 1421.82 122.807C1418.51 114.819 1413.66 107.562 1407.55 101.449C1401.44 95.3356 1394.18 90.4864 1386.19 87.1779C1378.21 83.8695 1369.65 82.1667 1361 82.1667V82.1667Z" fill="rgb(29,29,29)" fill-opacity="0.28" />
    <path d="M43.6117 990L80.0834 1026.47V1036.08H70.4717L34 999.612L-2.47164 1036.08H-12.0833V1026.47L24.3884 990L-12.0833 953.528V943.917H-2.47164L34 980.388L70.4717 943.917H80.0834V953.528L43.6117 990Z" fill="rgb(29,29,29)" fill-opacity="0.28" />
    <path d="M43.6117 990L80.0834 1026.47V1036.08H70.4717L34 999.612L-2.47164 1036.08H-12.0833V1026.47L24.3884 990L-12.0833 953.528V943.917H-2.47164L34 980.388L70.4717 943.917H80.0834V953.528L43.6117 990Z" fill="rgb(29,29,29)" fill-opacity="0.28" />
  </g>
  <defs>
    <clipPath id="clip0_2_2">
      <rect width="1440" height="1024" fill="white" />
    </clipPath>
  </defs>
</svg>