<?xml version="1.0" standalone="no"?>
<!DOCTYPE svg PUBLIC "-//W3C//DTD SVG 20010904//EN"
 "http://www.w3.org/TR/2001/REC-SVG-20010904/DTD/svg10.dtd">
<svg version="1.0" xmlns="http://www.w3.org/2000/svg"
 width="700.000000pt" height="700.000000pt" viewBox="0 0 700.000000 700.000000"
 preserveAspectRatio="xMidYMid meet">
<metadata>
Created by potrace 1.14, written by Peter Selinger 2001-2017
</metadata>
<g transform="translate(0.000000,700.000000) scale(0.100000,-0.100000)"
fill="#000000" stroke="none">
<path d="M2263 6980 c-17 -10 -37 -28 -43 -40 -24 -45 -30 -279 -30 -1196 l0
-951 -967 -7 c-533 -4 -1015 -11 -1072 -16 -122 -10 -146 -24 -146 -89 0 -54
32 -86 93 -96 26 -4 506 -10 1067 -14 l1020 -6 3 -1076 2 -1076 -187 -6 c-104
-4 -453 -7 -778 -7 -634 -1 -1108 -13 -1166 -30 -27 -7 -40 -19 -49 -41 -20
-47 -4 -81 45 -97 74 -25 605 -33 2570 -40 l1940 -7 6 -1025 c4 -690 9 -1037
16 -1063 13 -46 34 -71 74 -88 25 -10 36 -9 64 4 19 9 41 27 49 40 30 45 36
242 36 1193 l0 941 938 7 c945 7 1158 13 1209 38 62 29 52 119 -16 138 -58 17
-532 29 -1166 30 -324 0 -674 3 -778 7 l-187 6 2 1076 3 1076 1020 6 c561 4
1041 10 1067 14 61 10 93 42 93 96 0 26 -7 46 -22 60 -19 19 -36 22 -229 29
-115 5 -1133 12 -2261 16 l-2053 7 0 966 c-1 922 -6 1136 -30 1182 -13 23 -67
59 -90 59 -8 0 -29 -9 -47 -20z m2305 -3492 l2 -1078 -1070 0 -1070 0 0 1073
c0 591 3 1077 7 1080 3 4 484 6 1067 5 l1061 -3 3 -1077z"/>
<path d="M2972 4110 c-34 -21 -72 -74 -72 -101 0 -21 132 -178 300 -359 77
-82 140 -151 140 -154 0 -2 -84 -96 -186 -208 -265 -289 -281 -317 -226 -379
24 -27 37 -34 68 -34 65 1 134 58 382 318 l122 128 122 -128 c250 -262 316
-317 382 -318 31 0 44 7 68 34 55 62 39 90 -226 379 -102 112 -186 206 -186
208 0 3 63 72 140 154 168 181 300 338 300 359 0 49 -90 129 -130 116 -24 -8
-240 -219 -379 -370 l-92 -100 -36 40 c-220 243 -417 435 -446 435 -7 0 -27
-9 -45 -20z"/>
<path d="M4639 6977 c-65 -44 -63 -19 -67 -886 -4 -979 -1 -1011 84 -1047 29
-12 39 -12 68 0 51 21 65 51 76 162 12 128 12 1489 0 1617 -11 111 -19 130
-63 157 -41 26 -57 25 -98 -3z"/>
<path d="M965 6693 c-148 -20 -386 -161 -496 -296 -70 -86 -144 -241 -165
-346 -22 -114 -15 -287 16 -386 74 -235 241 -426 463 -530 119 -57 184 -70
337 -69 123 1 143 3 230 32 218 72 397 229 505 444 60 119 68 170 62 363 -6
182 -18 237 -79 364 -93 194 -355 384 -578 420 -62 10 -231 12 -295 4z m336
-245 c100 -37 157 -74 234 -152 123 -125 171 -256 162 -441 -7 -169 -53 -274
-167 -391 -106 -108 -227 -162 -380 -171 -116 -6 -202 12 -310 65 -89 44 -210
158 -253 239 -41 78 -67 192 -67 297 0 170 48 284 170 406 85 85 162 131 272
160 100 28 245 22 339 -12z"/>
<path d="M2249 1947 c-27 -18 -36 -32 -42 -67 -14 -75 -21 -1569 -8 -1694 12
-121 24 -148 76 -173 33 -16 37 -16 70 0 52 25 65 54 77 168 12 122 4 1642 -9
1704 -6 28 -18 46 -42 62 -43 29 -79 29 -122 0z"/>
<path d="M5783 1919 c-261 -30 -513 -211 -638 -458 -47 -94 -65 -162 -72 -276
-11 -191 26 -380 99 -502 77 -129 256 -285 390 -340 178 -72 440 -71 632 1
203 77 392 272 460 476 52 158 60 390 16 521 -50 148 -151 308 -243 383 -112
92 -314 179 -444 191 -32 3 -74 7 -93 9 -19 2 -68 -1 -107 -5z m312 -259 c184
-70 317 -218 365 -405 84 -330 -129 -670 -466 -740 -295 -62 -609 141 -689
445 -19 73 -19 207 1 284 53 206 222 383 410 431 92 23 301 15 379 -15z"/>
</g>
</svg>
